{"accessors":[{"bufferView":2,"componentType":5126,"count":2768,"max":[1.25,0.5284280180931091,0.5058349967002869],"min":[-1.25,-0.5284280180931091,-0.5058349967002869],"type":"VEC3"},{"bufferView":2,"byteOffset":33216,"componentType":5126,"count":2768,"max":[1,1,1],"min":[-1,-1,-1],"type":"VEC3"},{"bufferView":1,"componentType":5126,"count":2768,"max":[0.9927800297737122,0.998835027217865],"min":[0.5031309723854065,0.5023710131645203],"type":"VEC2"},{"bufferView":0,"componentType":5125,"count":9723,"type":"SCALAR"}],"asset":{"extras":{"author":"DigimonLTD (https://sketchfab.com/digimonbtc)","license":"CC-BY-4.0 (http://creativecommons.org/licenses/by/4.0/)","source":"https://sketchfab.com/3d-models/land-rover-2022-6fba589edc294bea977dded2059037c9","title":"Land Rover 2022"},"generator":"Sketchfab-12.29.0","version":"2.0"},"bufferViews":[{"buffer":0,"byteLength":38892,"name":"floatBufferViews","target":34963},{"buffer":0,"byteLength":22144,"byteOffset":38892,"byteStride":8,"name":"floatBufferViews","target":34962},{"buffer":0,"byteLength":66432,"byteOffset":61036,"byteStride":12,"name":"floatBufferViews","target":34962}],"buffers":[{"byteLength":127468,"uri":"data:application/octet-stream;base64,"}],"images":[{"uri":"data:application/octet-stream;base64,"}],"materials":[{"doubleSided":true,"name":"TexMap","pbrMetallicRoughness":{"baseColorTexture":{"index":0},"metallicFactor":0}}],"meshes":[{"name":"Object_0","primitives":[{"attributes":{"NORMAL":1,"POSITION":0,"TEXCOORD_0":2},"indices":3,"material":0,"mode":4}]}],"nodes":[{"children":[1],"matrix":[1,0,0,0,0,2.220446049250313e-16,-1,0,0,1,2.220446049250313e-16,0,0,0,0,1],"name":"Sketchfab_model"},{"children":[2],"name":"model.obj.cleaner.materialmerger.gles"},{"mesh":0,"name":"Object_2"}],"samplers":[{"magFilter":9729,"minFilter":9987,"wrapS":10497,"wrapT":10497}],"scene":0,"scenes":[{"name":"Sketchfab_Scene","nodes":[0]}],"textures":[{"sampler":0,"source":0}]}